<svg width="224" height="39" viewBox="0 0 224 39" fill="none" xmlns="http://www.w3.org/2000/svg">
<path d="M32.544 4.016V4.976C31.84 5.232 31.088 5.792 30.288 6.656C29.52 7.52 28.8 8.864 28.128 10.688L18 38.096C17.744 38.064 17.472 38.048 17.184 38.048C16.896 38.048 16.608 38.048 16.32 38.048C16.064 38.048 15.792 38.048 15.504 38.048C15.216 38.048 14.944 38.064 14.688 38.096L2.448 8.048C2 6.896 1.504 6.112 0.96 5.696C0.416 5.248 -0.096 5.008 -0.576 4.976V4.016C0.384 4.048 1.504 4.08 2.784 4.112C4.096 4.144 5.408 4.16 6.72 4.16C8.192 4.16 9.568 4.144 10.848 4.112C12.16 4.08 13.216 4.048 14.016 4.016V4.976C12.992 5.008 12.192 5.136 11.616 5.36C11.04 5.552 10.72 5.936 10.656 6.512C10.592 7.056 10.784 7.888 11.232 9.008L19.968 31.232L18.96 32.432L25.584 14.576C26.448 12.176 26.896 10.288 26.928 8.912C26.96 7.536 26.624 6.544 25.92 5.936C25.216 5.328 24.208 5.008 22.896 4.976V4.016C23.984 4.048 25.008 4.08 25.968 4.112C26.928 4.144 27.904 4.16 28.896 4.16C29.6 4.16 30.256 4.144 30.864 4.112C31.504 4.08 32.064 4.048 32.544 4.016ZM38.0483 0.799998C39.3923 0.799998 40.4483 1.136 41.2163 1.808C42.0163 2.448 42.4163 3.344 42.4163 4.496C42.4163 5.648 42.0163 6.56 41.2163 7.232C40.4483 7.872 39.3923 8.192 38.0483 8.192C36.7043 8.192 35.6323 7.872 34.8323 7.232C34.0643 6.56 33.6803 5.648 33.6803 4.496C33.6803 3.344 34.0643 2.448 34.8323 1.808C35.6323 1.136 36.7043 0.799998 38.0483 0.799998ZM41.7923 12.656V33.536C41.7923 34.88 42.0163 35.792 42.4643 36.272C42.9443 36.752 43.7443 36.992 44.8643 36.992V38C44.2883 37.968 43.3923 37.936 42.1763 37.904C40.9603 37.84 39.7283 37.808 38.4803 37.808C37.2323 37.808 35.9683 37.84 34.6883 37.904C33.4083 37.936 32.4483 37.968 31.8083 38V36.992C32.9283 36.992 33.7123 36.752 34.1603 36.272C34.6403 35.792 34.8803 34.88 34.8803 33.536V18.416C34.8803 16.976 34.6563 15.92 34.2083 15.248C33.7923 14.544 32.9923 14.192 31.8083 14.192V13.184C32.8323 13.28 33.8243 13.328 34.7843 13.328C36.1283 13.328 37.3763 13.28 38.5283 13.184C39.7123 13.056 40.8003 12.88 41.7923 12.656ZM56.4529 12.512C57.7969 12.512 58.9649 12.688 59.9569 13.04C60.9809 13.36 61.7169 13.68 62.1649 14C63.2529 14.736 63.9249 14.256 64.1809 12.56H65.1889C65.1249 13.456 65.0769 14.56 65.0449 15.872C65.0129 17.152 64.9969 18.864 64.9969 21.008H63.9889C63.8289 19.824 63.5249 18.656 63.0769 17.504C62.6289 16.352 61.9729 15.408 61.1089 14.672C60.2769 13.936 59.1889 13.568 57.8449 13.568C56.9169 13.568 56.1329 13.84 55.4929 14.384C54.8529 14.896 54.5329 15.648 54.5329 16.64C54.5329 17.6 54.8209 18.448 55.3969 19.184C55.9729 19.888 56.7089 20.576 57.6049 21.248C58.5329 21.888 59.4929 22.576 60.4849 23.312C61.5409 24.112 62.5009 24.912 63.3649 25.712C64.2289 26.48 64.9169 27.328 65.4289 28.256C65.9409 29.184 66.1969 30.288 66.1969 31.568C66.1969 33.008 65.7809 34.272 64.9489 35.36C64.1169 36.416 63.0129 37.232 61.6369 37.808C60.2929 38.384 58.7889 38.672 57.1249 38.672C56.1649 38.672 55.3009 38.576 54.5329 38.384C53.7969 38.192 53.1569 37.952 52.6129 37.664C52.1969 37.472 51.7969 37.296 51.4129 37.136C51.0609 36.944 50.7249 36.784 50.4049 36.656C50.0849 36.56 49.7969 36.672 49.5409 36.992C49.3169 37.312 49.1409 37.76 49.0129 38.336H48.0049C48.0689 37.312 48.1169 36.064 48.1489 34.592C48.1809 33.12 48.1969 31.168 48.1969 28.736H49.2049C49.3969 30.464 49.7489 32 50.2609 33.344C50.7729 34.656 51.4609 35.696 52.3249 36.464C53.2209 37.2 54.3409 37.568 55.6849 37.568C56.2289 37.568 56.7569 37.456 57.2689 37.232C57.7809 37.008 58.1969 36.64 58.5169 36.128C58.8689 35.616 59.0449 34.96 59.0449 34.16C59.0449 32.752 58.5809 31.584 57.6529 30.656C56.7569 29.728 55.6049 28.72 54.1969 27.632C53.1729 26.8 52.1969 25.984 51.2689 25.184C50.3729 24.352 49.6369 23.456 49.0609 22.496C48.4849 21.504 48.1969 20.384 48.1969 19.136C48.1969 17.696 48.5809 16.48 49.3489 15.488C50.1169 14.496 51.1249 13.76 52.3729 13.28C53.6529 12.768 55.0129 12.512 56.4529 12.512ZM75.3608 0.799998C76.7048 0.799998 77.7608 1.136 78.5288 1.808C79.3288 2.448 79.7288 3.344 79.7288 4.496C79.7288 5.648 79.3288 6.56 78.5288 7.232C77.7608 7.872 76.7048 8.192 75.3608 8.192C74.0168 8.192 72.9448 7.872 72.1448 7.232C71.3768 6.56 70.9928 5.648 70.9928 4.496C70.9928 3.344 71.3768 2.448 72.1448 1.808C72.9448 1.136 74.0168 0.799998 75.3608 0.799998ZM79.1048 12.656V33.536C79.1048 34.88 79.3288 35.792 79.7768 36.272C80.2568 36.752 81.0568 36.992 82.1768 36.992V38C81.6008 37.968 80.7048 37.936 79.4888 37.904C78.2728 37.84 77.0408 37.808 75.7928 37.808C74.5448 37.808 73.2808 37.84 72.0008 37.904C70.7208 37.936 69.7608 37.968 69.1208 38V36.992C70.2408 36.992 71.0248 36.752 71.4728 36.272C71.9528 35.792 72.1928 34.88 72.1928 33.536V18.416C72.1928 16.976 71.9688 15.92 71.5208 15.248C71.1048 14.544 70.3048 14.192 69.1208 14.192V13.184C70.1448 13.28 71.1368 13.328 72.0968 13.328C73.4408 13.328 74.6888 13.28 75.8408 13.184C77.0248 13.056 78.1128 12.88 79.1048 12.656ZM96.6454 12.512C98.9814 12.512 101.029 12.944 102.789 13.808C104.549 14.672 105.925 16.064 106.917 17.984C107.909 19.904 108.405 22.448 108.405 25.616C108.405 28.784 107.909 31.328 106.917 33.248C105.925 35.136 104.549 36.512 102.789 37.376C101.029 38.24 98.9814 38.672 96.6454 38.672C94.3734 38.672 92.3414 38.24 90.5494 37.376C88.7894 36.512 87.3974 35.136 86.3734 33.248C85.3814 31.328 84.8854 28.784 84.8854 25.616C84.8854 22.448 85.3814 19.904 86.3734 17.984C87.3974 16.064 88.7894 14.672 90.5494 13.808C92.3414 12.944 94.3734 12.512 96.6454 12.512ZM96.6454 13.472C95.3654 13.472 94.2934 14.432 93.4294 16.352C92.5654 18.24 92.1334 21.328 92.1334 25.616C92.1334 29.904 92.5654 32.992 93.4294 34.88C94.2934 36.768 95.3654 37.712 96.6454 37.712C97.9574 37.712 99.0294 36.768 99.8614 34.88C100.725 32.992 101.157 29.904 101.157 25.616C101.157 21.328 100.725 18.24 99.8614 16.352C99.0294 14.432 97.9574 13.472 96.6454 13.472ZM129.258 12.512C130.602 12.512 131.69 12.688 132.522 13.04C133.386 13.36 134.058 13.808 134.538 14.384C135.05 14.992 135.418 15.776 135.642 16.736C135.898 17.696 136.026 18.992 136.026 20.624V33.536C136.026 34.88 136.25 35.792 136.698 36.272C137.178 36.752 137.978 36.992 139.098 36.992V38C138.49 37.968 137.578 37.936 136.362 37.904C135.146 37.84 133.946 37.808 132.762 37.808C131.546 37.808 130.346 37.84 129.162 37.904C128.01 37.936 127.13 37.968 126.522 38V36.992C127.482 36.992 128.154 36.752 128.538 36.272C128.922 35.792 129.114 34.88 129.114 33.536V18.608C129.114 17.808 129.034 17.12 128.874 16.544C128.714 15.936 128.426 15.472 128.01 15.152C127.594 14.8 126.97 14.624 126.138 14.624C125.274 14.624 124.474 14.864 123.738 15.344C123.034 15.824 122.458 16.496 122.01 17.36C121.594 18.192 121.386 19.136 121.386 20.192V33.536C121.386 34.88 121.578 35.792 121.962 36.272C122.378 36.752 123.05 36.992 123.978 36.992V38C123.402 37.968 122.554 37.936 121.434 37.904C120.346 37.84 119.21 37.808 118.026 37.808C116.81 37.808 115.562 37.84 114.282 37.904C113.002 37.936 112.042 37.968 111.402 38V36.992C112.522 36.992 113.306 36.752 113.754 36.272C114.234 35.792 114.474 34.88 114.474 33.536V18.416C114.474 16.976 114.25 15.92 113.802 15.248C113.386 14.544 112.586 14.192 111.402 14.192V13.184C112.426 13.28 113.418 13.328 114.378 13.328C115.722 13.328 116.97 13.28 118.122 13.184C119.306 13.056 120.394 12.88 121.386 12.656V16.976C122.186 15.344 123.274 14.192 124.65 13.52C126.026 12.848 127.562 12.512 129.258 12.512Z" fill="white"/>
<path d="M167.046 4.016C166.918 5.456 166.822 6.848 166.758 8.192C166.726 9.536 166.71 10.576 166.71 11.312C166.71 12.016 166.726 12.688 166.758 13.328C166.79 13.968 166.822 14.512 166.854 14.96H165.75C165.334 12.464 164.758 10.512 164.022 9.104C163.286 7.664 162.374 6.64 161.286 6.032C160.23 5.424 158.966 5.12 157.494 5.12H155.91C154.982 5.12 154.278 5.2 153.798 5.36C153.318 5.52 152.998 5.84 152.838 6.32C152.678 6.8 152.598 7.536 152.598 8.528V32.624C152.598 33.872 152.726 34.8 152.982 35.408C153.238 36.016 153.734 36.416 154.47 36.608C155.206 36.8 156.294 36.912 157.734 36.944V38C156.742 37.968 155.462 37.936 153.894 37.904C152.326 37.872 150.678 37.856 148.95 37.856C147.574 37.856 146.23 37.872 144.918 37.904C143.606 37.936 142.422 37.968 141.366 38V37.04C142.39 36.976 143.158 36.848 143.67 36.656C144.182 36.464 144.518 36.08 144.678 35.504C144.87 34.928 144.966 34.064 144.966 32.912V9.104C144.966 7.92 144.87 7.056 144.678 6.512C144.518 5.936 144.166 5.552 143.622 5.36C143.11 5.136 142.358 5.008 141.366 4.976V4.016C142.678 4.048 144.07 4.08 145.542 4.112C147.014 4.112 148.47 4.128 149.91 4.16C151.35 4.16 152.694 4.16 153.942 4.16C155.19 4.16 156.214 4.16 157.014 4.16C158.486 4.16 160.15 4.16 162.006 4.16C163.894 4.128 165.574 4.08 167.046 4.016ZM159.894 20.624C159.894 20.624 159.894 20.784 159.894 21.104C159.894 21.424 159.894 21.584 159.894 21.584H151.158C151.158 21.584 151.158 21.424 151.158 21.104C151.158 20.784 151.158 20.624 151.158 20.624H159.894ZM161.094 14.288C160.966 16.112 160.902 17.504 160.902 18.464C160.934 19.424 160.95 20.304 160.95 21.104C160.95 21.904 160.966 22.784 160.998 23.744C161.03 24.704 161.11 26.096 161.238 27.92H160.134C159.942 26.8 159.638 25.76 159.222 24.8C158.806 23.84 158.198 23.072 157.398 22.496C156.598 21.888 155.558 21.584 154.278 21.584V20.624C155.238 20.624 156.038 20.432 156.678 20.048C157.35 19.632 157.91 19.104 158.358 18.464C158.806 17.792 159.158 17.088 159.414 16.352C159.67 15.616 159.862 14.928 159.99 14.288H161.094ZM178.71 0.415998V33.536C178.71 34.88 178.934 35.792 179.382 36.272C179.862 36.752 180.662 36.992 181.782 36.992V38C181.174 37.968 180.262 37.936 179.046 37.904C177.83 37.84 176.598 37.808 175.35 37.808C174.102 37.808 172.838 37.84 171.558 37.904C170.31 37.936 169.366 37.968 168.726 38V36.992C169.846 36.992 170.63 36.752 171.078 36.272C171.558 35.792 171.798 34.88 171.798 33.536V6.176C171.798 4.736 171.574 3.68 171.126 3.008C170.71 2.304 169.91 1.952 168.726 1.952V0.943999C169.75 1.04 170.742 1.088 171.702 1.088C173.014 1.088 174.262 1.04 175.446 0.943999C176.63 0.815999 177.718 0.639998 178.71 0.415998ZM190.064 0.799998C191.408 0.799998 192.464 1.136 193.232 1.808C194.032 2.448 194.432 3.344 194.432 4.496C194.432 5.648 194.032 6.56 193.232 7.232C192.464 7.872 191.408 8.192 190.064 8.192C188.72 8.192 187.648 7.872 186.848 7.232C186.08 6.56 185.696 5.648 185.696 4.496C185.696 3.344 186.08 2.448 186.848 1.808C187.648 1.136 188.72 0.799998 190.064 0.799998ZM193.808 12.656V33.536C193.808 34.88 194.032 35.792 194.48 36.272C194.96 36.752 195.76 36.992 196.88 36.992V38C196.304 37.968 195.408 37.936 194.192 37.904C192.976 37.84 191.744 37.808 190.496 37.808C189.248 37.808 187.984 37.84 186.704 37.904C185.424 37.936 184.464 37.968 183.824 38V36.992C184.944 36.992 185.728 36.752 186.176 36.272C186.656 35.792 186.896 34.88 186.896 33.536V18.416C186.896 16.976 186.672 15.92 186.224 15.248C185.808 14.544 185.008 14.192 183.824 14.192V13.184C184.848 13.28 185.84 13.328 186.8 13.328C188.144 13.328 189.392 13.28 190.544 13.184C191.728 13.056 192.816 12.88 193.808 12.656ZM209.621 13.184V14.192C208.981 14.192 208.501 14.336 208.181 14.624C207.893 14.912 207.909 15.312 208.229 15.824L220.853 34.592C221.237 35.168 221.637 35.696 222.052 36.176C222.501 36.624 222.997 36.896 223.541 36.992V38C223.061 37.968 222.325 37.936 221.333 37.904C220.373 37.84 219.397 37.808 218.405 37.808C217.253 37.808 216.069 37.84 214.853 37.904C213.637 37.936 212.741 37.968 212.165 38V36.992C212.805 36.992 213.269 36.848 213.557 36.56C213.877 36.272 213.877 35.872 213.557 35.36L200.933 16.592C200.389 15.792 199.925 15.216 199.541 14.864C199.189 14.48 198.757 14.256 198.245 14.192V13.184C198.789 13.216 199.605 13.264 200.693 13.328C201.781 13.36 202.869 13.376 203.957 13.376C205.013 13.376 206.085 13.36 207.173 13.328C208.261 13.264 209.077 13.216 209.621 13.184ZM208.517 26.432C208.517 26.432 208.533 26.528 208.565 26.72C208.629 26.912 208.677 27.104 208.709 27.296C208.773 27.488 208.805 27.584 208.805 27.584L206.885 30.032C205.925 31.28 205.397 32.432 205.301 33.488C205.205 34.512 205.477 35.344 206.117 35.984C206.757 36.592 207.637 36.944 208.757 37.04V38C208.149 37.968 207.397 37.952 206.501 37.952C205.637 37.92 204.789 37.904 203.957 37.904C203.125 37.872 202.421 37.856 201.845 37.856C201.141 37.856 200.517 37.872 199.973 37.904C199.461 37.904 198.965 37.936 198.485 38V37.04C199.221 36.752 199.925 36.336 200.597 35.792C201.269 35.216 202.021 34.4 202.853 33.344L208.517 26.432ZM222.149 13.184V14.144C221.477 14.336 220.773 14.752 220.037 15.392C219.301 16.032 218.533 16.848 217.733 17.84L212.453 24.464C212.453 24.464 212.421 24.384 212.357 24.224C212.325 24.032 212.277 23.84 212.213 23.648C212.181 23.456 212.165 23.36 212.165 23.36L214.565 20.144C215.429 19.024 215.957 18.032 216.149 17.168C216.341 16.304 216.197 15.6 215.717 15.056C215.269 14.512 214.469 14.208 213.317 14.144V13.184C214.245 13.216 215.189 13.248 216.149 13.28C217.109 13.312 217.973 13.328 218.741 13.328C219.477 13.328 220.117 13.312 220.661 13.28C221.205 13.248 221.701 13.216 222.149 13.184Z" fill="#E2D703"/>
</svg>
